<svg width="187" height="81" viewBox="0 0 187 81" fill="none" xmlns="http://www.w3.org/2000/svg">
<path d="M11.364 74.126C10.536 74.126 9.792 73.982 9.132 73.694C8.484 73.394 7.974 72.986 7.602 72.47C7.23 71.942 7.038 71.336 7.026 70.652H8.772C8.832 71.24 9.072 71.738 9.492 72.146C9.924 72.542 10.548 72.74 11.364 72.74C12.144 72.74 12.756 72.548 13.2 72.164C13.656 71.768 13.884 71.264 13.884 70.652C13.884 70.172 13.752 69.782 13.488 69.482C13.224 69.182 12.894 68.954 12.498 68.798C12.102 68.642 11.568 68.474 10.896 68.294C10.068 68.078 9.402 67.862 8.898 67.646C8.406 67.43 7.98 67.094 7.62 66.638C7.272 66.17 7.098 65.546 7.098 64.766C7.098 64.082 7.272 63.476 7.62 62.948C7.968 62.42 8.454 62.012 9.078 61.724C9.714 61.436 10.44 61.292 11.256 61.292C12.432 61.292 13.392 61.586 14.136 62.174C14.892 62.762 15.318 63.542 15.414 64.514H13.614C13.554 64.034 13.302 63.614 12.858 63.254C12.414 62.882 11.826 62.696 11.094 62.696C10.41 62.696 9.852 62.876 9.42 63.236C8.988 63.584 8.772 64.076 8.772 64.712C8.772 65.168 8.898 65.54 9.15 65.828C9.414 66.116 9.732 66.338 10.104 66.494C10.488 66.638 11.022 66.806 11.706 66.998C12.534 67.226 13.2 67.454 13.704 67.682C14.208 67.898 14.64 68.24 15 68.708C15.36 69.164 15.54 69.788 15.54 70.58C15.54 71.192 15.378 71.768 15.054 72.308C14.73 72.848 14.25 73.286 13.614 73.622C12.978 73.958 12.228 74.126 11.364 74.126ZM17.3385 69.05C17.3385 68.03 17.5425 67.142 17.9505 66.386C18.3585 65.618 18.9225 65.024 19.6425 64.604C20.3745 64.184 21.2085 63.974 22.1445 63.974C23.3565 63.974 24.3525 64.268 25.1325 64.856C25.9245 65.444 26.4465 66.26 26.6985 67.304H24.9345C24.7665 66.704 24.4365 66.23 23.9445 65.882C23.4645 65.534 22.8645 65.36 22.1445 65.36C21.2085 65.36 20.4525 65.684 19.8765 66.332C19.3005 66.968 19.0125 67.874 19.0125 69.05C19.0125 70.238 19.3005 71.156 19.8765 71.804C20.4525 72.452 21.2085 72.776 22.1445 72.776C22.8645 72.776 23.4645 72.608 23.9445 72.272C24.4245 71.936 24.7545 71.456 24.9345 70.832H26.6985C26.4345 71.84 25.9065 72.65 25.1145 73.262C24.3225 73.862 23.3325 74.162 22.1445 74.162C21.2085 74.162 20.3745 73.952 19.6425 73.532C18.9225 73.112 18.3585 72.518 17.9505 71.75C17.5425 70.982 17.3385 70.082 17.3385 69.05ZM33.78 63.956C34.524 63.956 35.196 64.118 35.796 64.442C36.396 64.754 36.864 65.228 37.2 65.864C37.548 66.5 37.722 67.274 37.722 68.186V74H36.102V68.42C36.102 67.436 35.856 66.686 35.364 66.17C34.872 65.642 34.2 65.378 33.348 65.378C32.484 65.378 31.794 65.648 31.278 66.188C30.774 66.728 30.522 67.514 30.522 68.546V74H28.884V60.68H30.522V65.54C30.846 65.036 31.29 64.646 31.854 64.37C32.43 64.094 33.072 63.956 33.78 63.956ZM49.3977 68.69C49.3977 69.002 49.3797 69.332 49.3437 69.68H41.4597C41.5197 70.652 41.8497 71.414 42.4497 71.966C43.0617 72.506 43.7997 72.776 44.6637 72.776C45.3717 72.776 45.9597 72.614 46.4277 72.29C46.9077 71.954 47.2437 71.51 47.4357 70.958H49.1997C48.9357 71.906 48.4077 72.68 47.6157 73.28C46.8237 73.868 45.8397 74.162 44.6637 74.162C43.7277 74.162 42.8877 73.952 42.1437 73.532C41.4117 73.112 40.8357 72.518 40.4157 71.75C39.9957 70.97 39.7857 70.07 39.7857 69.05C39.7857 68.03 39.9897 67.136 40.3977 66.368C40.8057 65.6 41.3757 65.012 42.1077 64.604C42.8517 64.184 43.7037 63.974 44.6637 63.974C45.5997 63.974 46.4277 64.178 47.1477 64.586C47.8677 64.994 48.4197 65.558 48.8037 66.278C49.1997 66.986 49.3977 67.79 49.3977 68.69ZM47.7057 68.348C47.7057 67.724 47.5677 67.19 47.2917 66.746C47.0157 66.29 46.6377 65.948 46.1577 65.72C45.6897 65.48 45.1677 65.36 44.5917 65.36C43.7637 65.36 43.0557 65.624 42.4677 66.152C41.8917 66.68 41.5617 67.412 41.4777 68.348H47.7057ZM50.9478 69.032C50.9478 68.024 51.1518 67.142 51.5598 66.386C51.9678 65.618 52.5258 65.024 53.2338 64.604C53.9538 64.184 54.7578 63.974 55.6458 63.974C56.4138 63.974 57.1278 64.154 57.7878 64.514C58.4478 64.862 58.9518 65.324 59.2998 65.9V60.68H60.9558V74H59.2998V72.146C58.9758 72.734 58.4958 73.22 57.8598 73.604C57.2238 73.976 56.4798 74.162 55.6278 74.162C54.7518 74.162 53.9538 73.946 53.2338 73.514C52.5258 73.082 51.9678 72.476 51.5598 71.696C51.1518 70.916 50.9478 70.028 50.9478 69.032ZM59.2998 69.05C59.2998 68.306 59.1498 67.658 58.8498 67.106C58.5498 66.554 58.1418 66.134 57.6258 65.846C57.1218 65.546 56.5638 65.396 55.9518 65.396C55.3398 65.396 54.7818 65.54 54.2778 65.828C53.7738 66.116 53.3718 66.536 53.0718 67.088C52.7718 67.64 52.6218 68.288 52.6218 69.032C52.6218 69.788 52.7718 70.448 53.0718 71.012C53.3718 71.564 53.7738 71.99 54.2778 72.29C54.7818 72.578 55.3398 72.722 55.9518 72.722C56.5638 72.722 57.1218 72.578 57.6258 72.29C58.1418 71.99 58.5498 71.564 58.8498 71.012C59.1498 70.448 59.2998 69.794 59.2998 69.05ZM72.4719 64.136V74H70.8339V72.542C70.5219 73.046 70.0839 73.442 69.5199 73.73C68.9679 74.006 68.3559 74.144 67.6839 74.144C66.9159 74.144 66.2259 73.988 65.6139 73.676C65.0019 73.352 64.5159 72.872 64.1559 72.236C63.8079 71.6 63.6339 70.826 63.6339 69.914V64.136H65.2539V69.698C65.2539 70.67 65.4999 71.42 65.9919 71.948C66.4839 72.464 67.1559 72.722 68.0079 72.722C68.8839 72.722 69.5739 72.452 70.0779 71.912C70.5819 71.372 70.8339 70.586 70.8339 69.554V64.136H72.4719ZM76.8756 60.68V74H75.2376V60.68H76.8756ZM88.6673 68.69C88.6673 69.002 88.6493 69.332 88.6133 69.68H80.7293C80.7893 70.652 81.1193 71.414 81.7193 71.966C82.3313 72.506 83.0693 72.776 83.9333 72.776C84.6413 72.776 85.2293 72.614 85.6973 72.29C86.1773 71.954 86.5133 71.51 86.7053 70.958H88.4693C88.2053 71.906 87.6773 72.68 86.8853 73.28C86.0933 73.868 85.1093 74.162 83.9333 74.162C82.9973 74.162 82.1573 73.952 81.4133 73.532C80.6813 73.112 80.1053 72.518 79.6853 71.75C79.2653 70.97 79.0553 70.07 79.0553 69.05C79.0553 68.03 79.2593 67.136 79.6673 66.368C80.0753 65.6 80.6453 65.012 81.3773 64.604C82.1213 64.184 82.9733 63.974 83.9333 63.974C84.8693 63.974 85.6973 64.178 86.4173 64.586C87.1373 64.994 87.6893 65.558 88.0733 66.278C88.4693 66.986 88.6673 67.79 88.6673 68.69ZM86.9753 68.348C86.9753 67.724 86.8373 67.19 86.5613 66.746C86.2853 66.29 85.9073 65.948 85.4273 65.72C84.9593 65.48 84.4373 65.36 83.8613 65.36C83.0333 65.36 82.3253 65.624 81.7373 66.152C81.1613 66.68 80.8313 67.412 80.7473 68.348H86.9753ZM108.768 64.136L105.69 74H103.998L101.622 66.17L99.2462 74H97.5542L94.4582 64.136H96.1322L98.4002 72.416L100.848 64.136H102.522L104.916 72.434L107.148 64.136H108.768ZM111.24 62.534C110.928 62.534 110.664 62.426 110.448 62.21C110.232 61.994 110.124 61.73 110.124 61.418C110.124 61.106 110.232 60.842 110.448 60.626C110.664 60.41 110.928 60.302 111.24 60.302C111.54 60.302 111.792 60.41 111.996 60.626C112.212 60.842 112.32 61.106 112.32 61.418C112.32 61.73 112.212 61.994 111.996 62.21C111.792 62.426 111.54 62.534 111.24 62.534ZM112.032 64.136V74H110.394V64.136H112.032ZM116.822 65.486V71.3C116.822 71.78 116.924 72.122 117.128 72.326C117.332 72.518 117.686 72.614 118.189 72.614H119.396V74H117.92C117.008 74 116.324 73.79 115.868 73.37C115.412 72.95 115.184 72.26 115.184 71.3V65.486H113.906V64.136H115.184V61.652H116.822V64.136H119.396V65.486H116.822ZM126.276 63.956C127.02 63.956 127.692 64.118 128.292 64.442C128.892 64.754 129.36 65.228 129.696 65.864C130.044 66.5 130.218 67.274 130.218 68.186V74H128.598V68.42C128.598 67.436 128.352 66.686 127.86 66.17C127.368 65.642 126.696 65.378 125.844 65.378C124.98 65.378 124.29 65.648 123.774 66.188C123.27 66.728 123.018 67.514 123.018 68.546V74H121.38V60.68H123.018V65.54C123.342 65.036 123.786 64.646 124.35 64.37C124.926 64.094 125.568 63.956 126.276 63.956ZM146.693 68.69C146.693 69.002 146.675 69.332 146.639 69.68H138.755C138.815 70.652 139.145 71.414 139.745 71.966C140.357 72.506 141.095 72.776 141.959 72.776C142.667 72.776 143.255 72.614 143.723 72.29C144.203 71.954 144.539 71.51 144.731 70.958H146.495C146.231 71.906 145.703 72.68 144.911 73.28C144.119 73.868 143.135 74.162 141.959 74.162C141.023 74.162 140.183 73.952 139.439 73.532C138.707 73.112 138.131 72.518 137.711 71.75C137.291 70.97 137.081 70.07 137.081 69.05C137.081 68.03 137.285 67.136 137.693 66.368C138.101 65.6 138.671 65.012 139.403 64.604C140.147 64.184 140.999 63.974 141.959 63.974C142.895 63.974 143.723 64.178 144.443 64.586C145.163 64.994 145.715 65.558 146.099 66.278C146.495 66.986 146.693 67.79 146.693 68.69ZM145.001 68.348C145.001 67.724 144.863 67.19 144.587 66.746C144.311 66.29 143.933 65.948 143.453 65.72C142.985 65.48 142.463 65.36 141.887 65.36C141.059 65.36 140.351 65.624 139.763 66.152C139.187 66.68 138.857 67.412 138.773 68.348H145.001ZM148.243 69.032C148.243 68.024 148.447 67.142 148.855 66.386C149.263 65.618 149.821 65.024 150.529 64.604C151.249 64.184 152.047 63.974 152.923 63.974C153.787 63.974 154.537 64.16 155.173 64.532C155.809 64.904 156.283 65.372 156.595 65.936V64.136H158.251V74H156.595V72.164C156.271 72.74 155.785 73.22 155.137 73.604C154.501 73.976 153.757 74.162 152.905 74.162C152.029 74.162 151.237 73.946 150.529 73.514C149.821 73.082 149.263 72.476 148.855 71.696C148.447 70.916 148.243 70.028 148.243 69.032ZM156.595 69.05C156.595 68.306 156.445 67.658 156.145 67.106C155.845 66.554 155.437 66.134 154.921 65.846C154.417 65.546 153.859 65.396 153.247 65.396C152.635 65.396 152.077 65.54 151.573 65.828C151.069 66.116 150.667 66.536 150.367 67.088C150.067 67.64 149.917 68.288 149.917 69.032C149.917 69.788 150.067 70.448 150.367 71.012C150.667 71.564 151.069 71.99 151.573 72.29C152.077 72.578 152.635 72.722 153.247 72.722C153.859 72.722 154.417 72.578 154.921 72.29C155.437 71.99 155.845 71.564 156.145 71.012C156.445 70.448 156.595 69.794 156.595 69.05ZM164.511 74.162C163.755 74.162 163.077 74.036 162.477 73.784C161.877 73.52 161.403 73.16 161.055 72.704C160.707 72.236 160.515 71.702 160.479 71.102H162.171C162.219 71.594 162.447 71.996 162.855 72.308C163.275 72.62 163.821 72.776 164.493 72.776C165.117 72.776 165.609 72.638 165.969 72.362C166.329 72.086 166.509 71.738 166.509 71.318C166.509 70.886 166.317 70.568 165.933 70.364C165.549 70.148 164.955 69.938 164.151 69.734C163.419 69.542 162.819 69.35 162.351 69.158C161.895 68.954 161.499 68.66 161.163 68.276C160.839 67.88 160.677 67.364 160.677 66.728C160.677 66.224 160.827 65.762 161.127 65.342C161.427 64.922 161.853 64.592 162.405 64.352C162.957 64.1 163.587 63.974 164.295 63.974C165.387 63.974 166.269 64.25 166.941 64.802C167.613 65.354 167.973 66.11 168.021 67.07H166.383C166.347 66.554 166.137 66.14 165.753 65.828C165.381 65.516 164.877 65.36 164.241 65.36C163.653 65.36 163.185 65.486 162.837 65.738C162.489 65.99 162.315 66.32 162.315 66.728C162.315 67.052 162.417 67.322 162.621 67.538C162.837 67.742 163.101 67.91 163.413 68.042C163.737 68.162 164.181 68.3 164.745 68.456C165.453 68.648 166.029 68.84 166.473 69.032C166.917 69.212 167.295 69.488 167.607 69.86C167.931 70.232 168.099 70.718 168.111 71.318C168.111 71.858 167.961 72.344 167.661 72.776C167.361 73.208 166.935 73.55 166.383 73.802C165.843 74.042 165.219 74.162 164.511 74.162ZM179.423 68.69C179.423 69.002 179.405 69.332 179.369 69.68H171.485C171.545 70.652 171.875 71.414 172.475 71.966C173.087 72.506 173.825 72.776 174.689 72.776C175.397 72.776 175.985 72.614 176.453 72.29C176.933 71.954 177.269 71.51 177.461 70.958H179.225C178.961 71.906 178.433 72.68 177.641 73.28C176.849 73.868 175.865 74.162 174.689 74.162C173.753 74.162 172.913 73.952 172.169 73.532C171.437 73.112 170.861 72.518 170.441 71.75C170.021 70.97 169.811 70.07 169.811 69.05C169.811 68.03 170.015 67.136 170.423 66.368C170.831 65.6 171.401 65.012 172.133 64.604C172.877 64.184 173.729 63.974 174.689 63.974C175.625 63.974 176.453 64.178 177.173 64.586C177.893 64.994 178.445 65.558 178.829 66.278C179.225 66.986 179.423 67.79 179.423 68.69ZM177.731 68.348C177.731 67.724 177.593 67.19 177.317 66.746C177.041 66.29 176.663 65.948 176.183 65.72C175.715 65.48 175.193 65.36 174.617 65.36C173.789 65.36 173.081 65.624 172.493 66.152C171.917 66.68 171.587 67.412 171.503 68.348H177.731Z" fill="#B6B4C2"/>
<path d="M11.8174 40.252C9.96941 40.252 8.31341 39.952 6.84941 39.352C5.38541 38.752 4.20941 37.864 3.32141 36.688C2.45741 35.512 2.00141 34.096 1.95341 32.44H8.50541C8.60141 33.376 8.92541 34.096 9.47741 34.6C10.0294 35.08 10.7494 35.32 11.6374 35.32C12.5494 35.32 13.2694 35.116 13.7974 34.708C14.3254 34.276 14.5894 33.688 14.5894 32.944C14.5894 32.32 14.3734 31.804 13.9414 31.396C13.5334 30.988 13.0174 30.652 12.3934 30.388C11.7934 30.124 10.9294 29.824 9.80141 29.488C8.16941 28.984 6.83741 28.48 5.80541 27.976C4.77341 27.472 3.88541 26.728 3.14141 25.744C2.39741 24.76 2.02541 23.476 2.02541 21.892C2.02541 19.54 2.87741 17.704 4.58141 16.384C6.28541 15.04 8.50541 14.368 11.2414 14.368C14.0254 14.368 16.2694 15.04 17.9734 16.384C19.6774 17.704 20.5894 19.552 20.7094 21.928H14.0494C14.0014 21.112 13.7014 20.476 13.1494 20.02C12.5974 19.54 11.8894 19.3 11.0254 19.3C10.2814 19.3 9.68141 19.504 9.22541 19.912C8.76941 20.296 8.54141 20.86 8.54141 21.604C8.54141 22.42 8.92541 23.056 9.69341 23.512C10.4614 23.968 11.6614 24.46 13.2934 24.988C14.9254 25.54 16.2454 26.068 17.2534 26.572C18.2854 27.076 19.1734 27.808 19.9174 28.768C20.6614 29.728 21.0334 30.964 21.0334 32.476C21.0334 33.916 20.6614 35.224 19.9174 36.4C19.1974 37.576 18.1414 38.512 16.7494 39.208C15.3574 39.904 13.7134 40.252 11.8174 40.252ZM59.5978 14.728L53.0098 40H45.5578L41.5258 23.368L37.3498 40H29.8978L23.4898 14.728H30.0778L33.7138 33.124L38.2138 14.728H44.9818L49.3018 33.124L52.9738 14.728H59.5978ZM68.8411 14.728V40H62.6851V14.728H68.8411ZM89.7543 14.728V19.66H79.4583V24.988H87.1623V29.776H79.4583V40H73.3023V14.728H89.7543ZM111.17 14.728V19.66H104.474V40H98.3178V19.66H91.6218V14.728H111.17Z" fill="url(#paint0_linear_1243_2631)"/>
<path d="M136.147 14.728V40H129.991V29.596H120.415V40H114.259V14.728H120.415V24.628H129.991V14.728H136.147ZM143.687 17.824C142.607 17.824 141.719 17.512 141.023 16.888C140.351 16.24 140.015 15.448 140.015 14.512C140.015 13.552 140.351 12.76 141.023 12.136C141.719 11.488 142.607 11.164 143.687 11.164C144.743 11.164 145.607 11.488 146.279 12.136C146.975 12.76 147.323 13.552 147.323 14.512C147.323 15.448 146.975 16.24 146.279 16.888C145.607 17.512 144.743 17.824 143.687 17.824ZM146.747 19.912V40H140.591V19.912H146.747ZM157.365 23.26C158.085 22.156 158.985 21.292 160.065 20.668C161.145 20.02 162.345 19.696 163.665 19.696V26.212H161.973C160.437 26.212 159.285 26.548 158.517 27.22C157.749 27.868 157.365 29.02 157.365 30.676V40H151.209V19.912H157.365V23.26ZM185.543 29.632C185.543 30.208 185.507 30.808 185.435 31.432H171.503C171.599 32.68 171.995 33.64 172.691 34.312C173.411 34.96 174.287 35.284 175.319 35.284C176.855 35.284 177.923 34.636 178.523 33.34H185.075C184.739 34.66 184.127 35.848 183.239 36.904C182.375 37.96 181.283 38.788 179.963 39.388C178.643 39.988 177.167 40.288 175.535 40.288C173.567 40.288 171.815 39.868 170.279 39.028C168.743 38.188 167.543 36.988 166.679 35.428C165.815 33.868 165.383 32.044 165.383 29.956C165.383 27.868 165.803 26.044 166.643 24.484C167.507 22.924 168.707 21.724 170.243 20.884C171.779 20.044 173.543 19.624 175.535 19.624C177.479 19.624 179.207 20.032 180.719 20.848C182.231 21.664 183.407 22.828 184.247 24.34C185.111 25.852 185.543 27.616 185.543 29.632ZM179.243 28.012C179.243 26.956 178.883 26.116 178.163 25.492C177.443 24.868 176.543 24.556 175.463 24.556C174.431 24.556 173.555 24.856 172.835 25.456C172.139 26.056 171.707 26.908 171.539 28.012H179.243Z" fill="#1D1617"/>
<defs>
<linearGradient id="paint0_linear_1243_2631" x1="342.833" y1="104" x2="-83.2953" y2="-8.11246" gradientUnits="userSpaceOnUse">
<stop stop-color="#CC8FED"/>
<stop offset="1" stop-color="#6B50F6"/>
</linearGradient>
</defs>
</svg>
